# xmcd
#
# Track frame offsets:
#	150
#	12952
#	26929
#	36881
#	51933
#	61885
#	73237
#	84039
#	97341
#	111043
#	126085
#	137137
#	149501
#	162546
#	171895
#	184350
#	194290
#	205304
#	220079
#	234616
#	249735
#	263140
#	278122
#	298714
#	311246
#
# Disc length: 4347
#
# Revision: 2
# Processed by: cddbd v1.5.1PL0 Copyright (c) Steve Scherf et al.
# Submitted via: audiograbber 1.80
# Normalized: r1:DSETVAR1
#
DISCID=8e10f919
DTITLE=Various Artist - Country and Western
DYEAR=1900
DGENRE=
TTITLE0=Johnny Cash - Folsom Prison Blues
TTITLE1=Willie Nelson - Home Is Were Your Happy
TTITLE2=Dolly Parton - Release Me
TTITLE3=Frankie Laine - Sixteen Tons
TTITLE4=Eddie Jones - Seep In The Heart Of Texas
TTITLE5=Roger Miller - King Of The Road
TTITLE6=Jerry Lee Lewis and Linda Gail Lewis - Jackson
TTITLE7=Stu Stevens - Love Me Tender
TTITLE8=Freddy - Oh. Lonesome Me
TTITLE9=The Kingston Trio - Tom Dooley
TTITLE10=Bill Hayes - Ballad Of Davy Crockett
TTITLE11=Johnny Cash - I Walk The Line
TTITLE12=Kenny Rogers - Ryby, don't Take Your Love To Town
TTITLE13=Jin Reevers - He'll Have To Go
TTITLE14=Kenny Rogers - Reuben James
TTITLE15=Johnny Cash - Ballad Of A Teenage Queen
TTITLE16=Conway Twitty - Mona Lisa
TTITLE17=Johnny Burnette - The Ballad Of One Eyed Jack
TTITLE18=Peter Hofmann - Take Me Home, Country Roads
TTITLE19=Peter Hofmann - Goodby Marie
TTITLE20=Peter Hofmann - The Most Beautiful Girl
TTITLE21=Peter Hofmann - Oh Darlin'
TTITLE22=Peter Hofmann - Please Come To Boston
TTITLE23=Peter Hofmann - New Way
TTITLE24=Peter Hofmann - The Gambler
EXTD=
EXTT0=
EXTT1=
EXTT2=
EXTT3=
EXTT4=
EXTT5=
EXTT6=
EXTT7=
EXTT8=
EXTT9=
EXTT10=
EXTT11=
EXTT12=
EXTT13=
EXTT14=
EXTT15=
EXTT16=
EXTT17=
EXTT18=
EXTT19=
EXTT20=
EXTT21=
EXTT22=
EXTT23=
EXTT24=
PLAYORDER=
